<svg width="16" height="16" viewBox="0 0 16 16" fill="none" xmlns="http://www.w3.org/2000/svg">
<path d="M16 8C16 12.4183 12.4183 16 8 16C3.58172 16 0 12.4183 0 8C0 3.58172 3.58172 0 8 0C12.4183 0 16 3.58172 16 8Z" fill="#1D1D1D"/>
<path d="M9.54372 7.72608H9.88597C10.2436 7.72608 10.518 7.65208 10.7092 7.50408C10.9004 7.35608 10.996 7.14333 10.996 6.86583C10.996 6.58833 10.9004 6.37558 10.7092 6.22758C10.518 6.07958 10.2436 6.00558 9.88597 6.00558H9.54372V7.72608ZM13.5305 11.5833H11.2735L9.54372 8.90083V11.5833H7.73071V4.60883H10.552C10.9405 4.60883 11.2796 4.66741 11.5695 4.78458C11.8593 4.89558 12.0967 5.04974 12.2817 5.24708C12.4729 5.44441 12.6147 5.67258 12.7072 5.93158C12.8059 6.19058 12.8552 6.46808 12.8552 6.76408C12.8552 7.29441 12.7257 7.72608 12.4667 8.05908C12.2139 8.38591 11.8377 8.60791 11.3382 8.72508L13.5305 11.5833Z" fill="white"/>
<path d="M6.66245 4.60883V9.44658C6.66245 9.65008 6.65012 9.83816 6.62545 10.0108C6.60695 10.1835 6.57303 10.3315 6.5237 10.4548C6.44353 10.6522 6.33253 10.8341 6.1907 11.0006C6.05503 11.1609 5.8947 11.2997 5.7097 11.4168C5.5247 11.5278 5.31812 11.6142 5.08995 11.6758C4.86795 11.7437 4.63362 11.7776 4.38695 11.7776C3.64078 11.7776 3.03336 11.4353 2.5647 10.7508L3.7487 9.53908C3.77953 9.74875 3.84736 9.91525 3.9522 10.0386C4.05703 10.1619 4.18653 10.2236 4.3407 10.2236C4.67987 10.2236 4.84945 9.95533 4.84945 9.41883V4.60883H6.66245Z" fill="white"/>
</svg>
